<svg width="149" height="124" viewBox="0 0 149 124" fill="none" xmlns="http://www.w3.org/2000/svg">
<path fill-rule="evenodd" clip-rule="evenodd" d="M72.7286 49.9939C72.2651 64.0478 68.7607 81.116 65.0616 94.3504C57.7562 120.452 35.1445 111.927 28.488 87.4553C22.4156 65.1405 24.5386 32.4641 24.8538 20.8405C20.4502 21.2267 5.94125 25.5408 2.44613 27.0479C1.06477 27.6413 0.489981 28.9224 0.406543 30.3919C-0.909922 54.082 0.360192 85.7598 13.5063 106.389C20.719 117.701 31.7699 125.463 45.4723 123.768C47.0112 123.579 48.5317 123.268 50.0335 122.854C61.789 119.576 69.1779 108.574 73.8319 97.8262L76.5204 91.6282L80.6089 96.969C93.7086 114.084 116.506 108.225 129.392 94.4164C135.177 88.2183 139.284 80.3153 142.214 71.6399C148.138 54.0914 149.232 33.9524 148.963 15.5373C148.954 14.9627 148.778 14.5953 148.249 14.3787L148.166 14.341L148.092 14.3127C145.514 13.107 142.473 12.2216 139.757 11.4209L139.683 11.4021L139.609 11.3738C138.886 11.1289 137.106 10.592 135.752 10.3754C136.253 26.9537 137.727 60.7698 128.076 79.6371C120.307 94.8402 104.398 98.5327 94.2834 83.5651C87.8958 74.1079 84.9384 59.7714 84.8642 50.7946C84.855 50.333 84.855 49.8714 84.8642 49.4099C87.5713 47.6202 90.5658 44.5965 94.4039 40.0751C124.701 4.42225 88.4057 -12.7401 76.78 10.8746C74.6384 8.29365 72.5247 6.13659 70.003 4.8367C67.4906 3.53681 64.5517 3.12233 60.7043 4.07371C56.4397 5.12869 52.8982 8.44437 50.4044 12.3252C47.9012 16.2249 46.455 20.718 46.5106 24.1467C46.5755 28.3196 48.3184 32.0874 51.3036 35.5161C54.2889 38.9448 58.5071 42.0909 63.4578 45.0015C67.1568 47.168 70.1328 48.873 72.7286 49.9939V49.9939ZM62.1598 8.7929C64.5054 8.32192 66.7582 8.97186 68.0005 10.1681C69.9659 12.0709 67.8614 13.6251 66.2761 14.633C61.8539 17.4589 60.695 18.9095 58.4237 23.7323C57.58 25.522 55.4106 27.1327 53.677 25.456C52.4347 24.2597 51.7857 22.0744 52.1566 19.7195C52.926 14.812 57.3019 9.74427 62.1598 8.7929Z" fill="#30B283"/>
</svg>
