<svg width="12" height="12" viewBox="0 0 12 12" fill="none" xmlns="http://www.w3.org/2000/svg">
<path fill-rule="evenodd" clip-rule="evenodd" d="M0.81288 0.8636C1.1669 0.509578 1.74089 0.509578 2.09491 0.8636L5.98655 4.75524L9.8782 0.8636C10.2322 0.509578 10.8062 0.509578 11.1602 0.8636C11.5142 1.21762 11.5142 1.79161 11.1602 2.14563L7.26858 6.03727L11.1602 9.92892C11.5142 10.2829 11.5142 10.8569 11.1602 11.2109C10.8062 11.565 10.2322 11.565 9.8782 11.2109L5.98655 7.3193L2.09491 11.2109C1.74089 11.565 1.1669 11.565 0.81288 11.2109C0.458858 10.8569 0.458858 10.2829 0.81288 9.92892L4.70452 6.03727L0.81288 2.14563C0.458858 1.79161 0.458858 1.21762 0.81288 0.8636Z" fill="white" stroke="white" stroke-width="1.04078" stroke-linecap="round" stroke-linejoin="round"/>
</svg>
