<svg width="61" height="47" viewBox="0 0 61 47" fill="none" xmlns="http://www.w3.org/2000/svg">
<path fill-rule="evenodd" clip-rule="evenodd" d="M29.0526 33.944C29.4044 34.2522 29.8653 34.439 30.3699 34.439H39.3699C40.4744 34.439 41.3699 33.5436 41.3699 32.439V18.439C41.3699 17.3344 40.4744 16.439 39.3699 16.439H33.8078L35.4098 22.4175C35.4377 21.7259 35.7624 21.0342 36.4574 20.8111C37.2572 20.5543 37.7509 21.414 37.7921 22.1383C37.8403 22.9856 37.4199 23.832 36.84 24.0342C36.3705 24.1979 35.9991 24.0288 35.7523 23.6959L36.0844 24.9353C36.3891 25.0492 36.6443 25.2159 36.8057 25.4136C37.0058 25.6585 37.1831 25.9633 37.3817 26.3046L37.4075 26.349C37.5388 26.5747 37.7212 26.8009 37.905 27.0289C38.4825 27.7452 39.0753 28.4805 38.152 29.2811C37.8854 29.5124 37.6186 29.6201 37.3479 29.6508C37.6337 30.7177 37.0006 31.8143 35.9337 32.1002L29.0526 33.944ZM38.8766 23.1064C37.2488 23.5375 37.1416 26.6777 38.8185 26.208C39.418 26.0399 39.9243 25.3657 40.053 24.6431C40.2074 23.7765 39.7845 22.866 38.8766 23.1064Z" fill="#30B283"/>
<path fill-rule="evenodd" clip-rule="evenodd" d="M20.9829 15.4403C19.9159 15.7262 19.2828 16.8229 19.5686 17.8898L23.4513 32.38C23.7372 33.447 24.8338 34.0801 25.9008 33.7942L34.752 31.4226C35.819 31.1367 36.4521 30.04 36.1662 28.9731L32.2836 14.4829C31.9977 13.4159 30.9011 12.7828 29.8341 13.0686L20.9829 15.4403ZM28.0492 18.5556C26.5754 19.5052 27.865 22.5139 29.253 21.5698C29.7607 21.2245 29.9478 20.2981 29.682 19.4921C29.4547 18.8032 28.7553 18.1006 28.0492 18.5556ZM27.1562 23.0048C26.4022 23.4781 26.3177 23.795 26.1515 24.418C26.1145 24.5569 26.0734 24.7109 26.0199 24.8852C25.972 25.0416 25.8813 25.2454 25.7814 25.4698C25.5524 25.9839 25.2754 26.606 25.3559 27.0132C25.5217 27.8526 26.5079 28.1536 27.3161 27.9109C27.666 27.8058 27.9046 27.6295 28.1387 27.4566C28.5087 27.1832 28.8674 26.9183 29.636 26.9561C29.7069 26.9596 29.7773 26.9636 29.8472 26.9676C30.6421 27.0128 31.3674 27.054 31.8783 26.2984C32.5629 25.2861 31.8 24.7293 31.0568 24.1869C30.8202 24.0142 30.5855 23.8429 30.4002 23.6589L30.3639 23.6228C30.0838 23.3445 29.8335 23.0959 29.5768 22.9111C29.0423 22.5262 27.9575 22.5018 27.1562 23.0048ZM26.559 22.3091C25.1898 23.1313 23.657 20.1609 25.1109 19.3195C25.7809 18.9318 26.5324 19.6189 26.8215 20.2201C27.196 20.9981 27.1244 21.9694 26.559 22.3091ZM23.2625 22.2401C21.9513 23.1854 23.9252 25.687 25.144 24.9275C26.4395 24.1202 24.5538 21.3088 23.2625 22.2401ZM31.7266 23.1575C30.2285 24.0452 29.5193 20.9843 30.98 20.1466C31.7948 19.6793 32.4389 20.4494 32.5141 21.3264C32.5767 22.0577 32.2622 22.8399 31.7266 23.1575Z" fill="#30B283"/>
<path d="M17.5 0H43.5C43.5 1.65685 42.1569 3 40.5 3H20.5C18.8431 3 17.5 1.65685 17.5 0Z" fill="#30B283"/>
</svg>