<svg width="296" height="175" viewBox="0 0 296 175" fill="none" xmlns="http://www.w3.org/2000/svg">
<g clip-path="url(#clip0_759_1016)">
<path opacity="0.53" d="M27.0343 73.0405C30.8613 69.7968 44.18 70.1147 51.9707 70.1147C59.7614 70.1147 75.1297 70.4581 79.3586 75.7953C83.5874 81.1324 71.8454 86.8195 53.6691 86.8195C35.4927 86.8195 15.6627 82.6799 27.0343 73.0405Z" fill="#83D1B5"/>
<path d="M241.759 88.7072C241.759 88.7072 269.794 89.3042 279.906 91.0011C290.017 92.698 302.886 105.076 291.625 118.105C280.365 131.134 263.692 129.616 216.43 129.616C224.524 103.776 241.759 88.7072 241.759 88.7072Z" fill="#83D1B5"/>
<path d="M62.666 94.7594C62.666 94.7594 46.9859 92.1986 25.2917 95.4712C11.9639 97.4827 -1.13184 104.57 0.077814 114.714C1.84592 129.581 37.4876 123.928 46.9951 132.122C56.5026 140.315 35.7833 142.708 29.9712 151.287C24.159 159.866 29.4449 171.507 56.5993 173.276C83.7537 175.046 168.122 175.948 187.613 173.515C207.105 171.081 219.077 148.359 188.041 136.14C139.581 126.312 62.666 94.7594 62.666 94.7594Z" fill="#83D1B5"/>
<path d="M255.691 100.58C255.691 125.657 218.211 145.988 148.407 145.988C78.6035 145.988 43.0854 125.654 43.0854 100.58C43.0854 75.5069 78.6278 55.1729 148.41 55.1729C218.192 55.1729 255.691 75.5029 255.691 100.58Z" fill="#F0F6FF"/>
<path opacity="0.36" d="M100.857 79.0107C100.857 79.0107 62.5162 82.8555 59.7588 133.863C74.9258 160.853 134.673 154.451 134.673 154.451C134.673 154.451 132.41 102.744 152.929 74.5663C195.569 75.9387 225.903 75.5193 237.393 132.707C260.832 120.812 262.636 94.9219 262.636 94.9219C262.636 94.9219 251.146 58.3215 234.37 54.2041C217.595 50.0868 190.479 55.1217 190.479 55.1217L100.857 79.0107Z" fill="#77D7F5"/>
<g style="mix-blend-mode:multiply" opacity="0.64">
<path d="M222.456 82.1292C222.456 94.4021 196.693 104.353 148.729 104.353C100.765 104.353 76.3203 94.4041 76.3203 82.1292C76.3203 69.8544 100.752 59.9103 148.729 59.9103C196.706 59.9103 222.456 69.8642 222.456 82.1292Z" fill="#E1ECFF"/>
</g>
<path d="M181.852 85.4333C181.852 85.4333 186.55 90.72 187.163 94.9901C187.776 99.2602 187.265 104.545 192.269 106.276C197.274 108.007 210.461 109.021 214.534 103.836C218.607 98.6506 215.862 90.3143 208.508 84.0104C202.595 78.7831 195.218 75.4831 187.368 74.5532L181.852 85.4333Z" fill="#FFD5BF"/>
<g style="mix-blend-mode:multiply" opacity="0.45">
<path d="M180.384 95.6429C180.384 95.6429 201.448 94.0227 200.969 71.8463C196.289 72.0471 191.702 73.2186 187.502 75.2859C183.301 77.3532 179.58 80.2708 176.576 83.8524L180.384 95.6429Z" fill="#FFD5BF"/>
</g>
<path d="M111.642 85.4333C111.642 85.4333 116.34 90.72 116.953 94.9901C117.566 99.2602 117.055 104.545 122.059 106.276C127.064 108.007 140.251 109.021 144.324 103.836C148.397 98.6506 145.652 90.3143 138.299 84.0104C132.385 78.7831 125.008 75.4831 117.158 74.5532L111.642 85.4333Z" fill="#FFD5BF"/>
<g style="mix-blend-mode:multiply" opacity="0.45">
<path d="M116.503 79.6813C116.503 79.6813 127.415 97.6924 147.107 87.3065C144.822 83.2319 141.709 79.6771 137.967 76.869C134.225 74.0609 129.937 72.0614 125.376 70.9982L116.503 79.6813Z" fill="#FFD5BF"/>
</g>
<path d="M173.532 7.66888C176.404 7.76392 185.536 7.09997 189.347 18.2868C193.158 29.4736 196.11 37.635 201.253 44.9364C206.395 52.2379 211.638 65.5168 201.253 74.8009C197.505 78.2132 192.825 80.4407 187.806 81.2015C182.787 81.9622 177.654 81.2219 173.058 79.0743C167.439 76.3229 160.765 71.7696 162.386 56.2242C164.008 40.6788 168.964 31.1869 169.532 22.6519C170.101 14.117 170.978 11.2737 173.532 7.66888Z" fill="#E0A98C"/>
<path d="M146.721 0.0443109C161.629 -0.559337 173.745 5.07668 179.258 12.5492C184.77 20.0217 187.993 38.1692 188.682 43.5856C189.372 49.0021 191.823 51.8971 194.427 55.4809C197.22 59.325 202.011 71.1882 196.878 79.1183C191.745 87.0483 183.384 89.0807 174.489 84.7353C165.526 88.23 157.913 90.0219 143.434 87.5949C128.955 85.1678 115.058 72.9297 111.518 48.3486C109.475 34.1153 109.45 16.7302 116.308 7.682C127.741 4.56217 132.608 0.60339 146.721 0.0443109Z" fill="#FFD5BF"/>
<path d="M116.34 7.66888C113.276 7.77048 103.471 7.05868 99.3856 19.0556C95.3002 31.0525 92.1441 39.7959 86.6195 47.6237C81.0948 55.4515 75.4872 69.6854 86.6195 79.6485C90.6383 83.3069 95.6564 85.6945 101.038 86.5089C106.42 87.3234 111.923 86.5279 116.851 84.2234C122.877 81.2739 130.026 76.395 128.29 59.7216C126.553 43.0482 121.242 32.8825 120.63 23.7321C120.017 14.5817 119.097 11.532 116.34 7.66888Z" fill="#E0A98C"/>
<path d="M147.58 50.8772C149.864 50.8772 151.716 49.0338 151.716 46.7598C151.716 44.4859 149.864 42.6425 147.58 42.6425C145.296 42.6425 143.444 44.4859 143.444 46.7598C143.444 49.0338 145.296 50.8772 147.58 50.8772Z" fill="#2B2B2B"/>
<path d="M181.182 50.8772C183.466 50.8772 185.318 49.0338 185.318 46.7598C185.318 44.4859 183.466 42.6425 181.182 42.6425C178.897 42.6425 177.045 44.4859 177.045 46.7598C177.045 49.0338 178.897 50.8772 181.182 50.8772Z" fill="#2B2B2B"/>
<path d="M141.104 36.3038C140.785 34.8107 144.506 32.9742 146.403 31.5952C148.3 30.2162 151.155 29.6892 152.658 32.2054C154.161 34.7216 149.01 37.0883 147.111 37.4921C145.212 37.8958 141.443 37.9404 141.104 36.3038Z" fill="#E0A98C"/>
<path d="M185.315 35.7454C185.44 34.369 182.194 32.9146 180.499 31.7709C178.804 30.6271 176.385 30.3086 175.357 32.6858C174.33 35.0631 178.817 36.9147 180.429 37.1749C182.04 37.4351 185.178 37.2561 185.315 35.7454Z" fill="#E0A98C"/>
<path d="M167.687 60.2806C167.981 58.5647 180.134 57.9932 181.182 60.2806C182.229 62.5681 178.945 68.4394 175.577 68.4394C172.209 68.4394 166.921 64.7808 167.687 60.2806Z" fill="#2B2B2B"/>
<path d="M175.899 63.5604C176.025 66.8205 175.876 70.0853 175.453 73.3204" stroke="#2B2B2B" stroke-width="3.397" stroke-miterlimit="10" stroke-linecap="round"/>
<g style="mix-blend-mode:multiply">
<path d="M128.807 106.286C128.807 106.286 130.237 102.473 128.488 99.0452" stroke="#E0A98C" stroke-width="3.397" stroke-miterlimit="10" stroke-linecap="round"/>
</g>
<g style="mix-blend-mode:multiply">
<path d="M140.089 105.523C140.568 103.33 140.263 101.039 139.228 99.0452" stroke="#E0A98C" stroke-width="3.397" stroke-miterlimit="10" stroke-linecap="round"/>
</g>
<g style="mix-blend-mode:multiply">
<path d="M199.017 106.286C199.017 106.286 200.447 102.473 198.698 99.0452" stroke="#E0A98C" stroke-width="3.397" stroke-miterlimit="10" stroke-linecap="round"/>
</g>
<g style="mix-blend-mode:multiply">
<path d="M210.299 105.523C210.779 103.33 210.476 101.039 209.44 99.0452" stroke="#E0A98C" stroke-width="3.397" stroke-miterlimit="10" stroke-linecap="round"/>
</g>
<path opacity="0.53" d="M229.321 145.1C233.153 141.853 246.463 142.171 254.257 142.171C262.051 142.171 277.416 142.517 281.645 147.855C285.874 153.193 274.132 158.876 255.955 158.876C237.778 158.876 217.962 154.739 229.321 145.1Z" fill="#83D1B5"/>
</g>
<defs>
<clipPath id="clip0_759_1016">
<rect width="296" height="175" fill="white"/>
</clipPath>
</defs>
</svg>
