<svg width="33" height="32" viewBox="0 0 33 32" fill="none" xmlns="http://www.w3.org/2000/svg">
<path d="M19.2044 12C19.2044 10.8955 20.1071 10 21.2206 10C22.334 10 23.2367 10.8955 23.2367 12C23.2367 13.1046 22.334 14 21.2206 14C20.1071 14 19.2044 13.1046 19.2044 12Z" fill="#C4C4C4"/>
<path fill-rule="evenodd" clip-rule="evenodd" d="M10.1554 6.21142C14.388 5.84644 18.6445 5.84644 22.8771 6.21142L24.907 6.38647C26.8493 6.55396 28.4228 8.02015 28.7127 9.93267C29.3224 13.955 29.3224 18.0451 28.7127 22.0674C28.4228 23.9799 26.8493 25.4461 24.907 25.6136L22.8771 25.7886C18.6446 26.1536 14.388 26.1536 10.1554 25.7886L8.12554 25.6136C6.18325 25.4461 4.60976 23.9799 4.31985 22.0674C3.71012 18.0451 3.71012 13.955 4.31985 9.93267C4.60976 8.02015 6.18325 6.55396 8.12554 6.38647L10.1554 6.21142ZM22.7025 8.20391C18.5861 7.84894 14.4464 7.84894 10.33 8.20391L8.30014 8.37895C7.28626 8.46638 6.4649 9.23174 6.31356 10.2301C5.96741 12.5136 5.8279 14.82 5.89504 17.1221L11.0992 11.9596C11.2955 11.7648 11.5641 11.659 11.8416 11.6671C12.1191 11.6752 12.3809 11.7965 12.5654 12.0023L17.5001 17.5095L20.9018 16.3847C21.2822 16.2589 21.7016 16.3687 21.9699 16.6644L26.6999 21.8779C26.7071 21.8422 26.7135 21.8063 26.719 21.77C27.2988 17.9448 27.2988 14.0552 26.719 10.2301C26.5677 9.23174 25.7463 8.46638 24.7324 8.37895L22.7025 8.20391ZM25.4143 23.4507L20.913 18.4892L17.5071 19.6154C17.1245 19.7419 16.7028 19.63 16.4349 19.3311L11.7688 14.1237L6.06492 19.782C6.13049 20.4461 6.21337 21.109 6.31356 21.7699C6.4649 22.7683 7.28626 23.5336 8.30014 23.6211L10.33 23.7961C14.4464 24.1511 18.5861 24.1511 22.7025 23.7961L24.7324 23.6211C24.9727 23.6004 25.2021 23.5416 25.4143 23.4507Z" fill="#C4C4C4"/>
</svg>
