<svg width="325" height="239" viewBox="0 0 325 239" fill="none" xmlns="http://www.w3.org/2000/svg">
<path d="M229.284 167.182H221.796C223.381 164.894 224.212 162.175 224.175 159.399C224.175 153.076 220.256 148.004 215.357 148.004H38.3636C33.4646 148.004 29.5454 153.146 29.5454 159.399C29.5454 165.722 33.4646 170.795 38.3636 170.795H43.4026C44.1181 170.788 44.8213 170.981 45.4322 171.351C44.0841 173.522 43.3806 176.027 43.4026 178.577C43.4026 184.9 47.3218 189.973 52.2208 189.973H57.2597C60.0592 189.973 62.2987 192.961 62.2987 196.643V196.713C62.2987 203.036 66.2179 208.108 71.1169 208.108H196.881C201.78 208.108 205.699 202.967 205.699 196.713V196.643C205.699 193.03 207.939 189.973 210.738 189.973H229.284C234.183 189.973 238.103 184.831 238.103 178.577C238.103 172.254 234.183 167.182 229.284 167.182Z" fill="#D6F0E6"/>
<path d="M216.547 105.131L122.277 69.5549L120.947 134.732L204.37 173.505C204.875 173.74 205.429 173.851 205.987 173.831C206.544 173.81 207.089 173.657 207.575 173.385C208.061 173.113 208.474 172.73 208.781 172.268C209.088 171.805 209.279 171.276 209.339 170.726L216.547 105.131Z" fill="#30B283"/>
<path d="M67.8978 157.384L120.947 134.732L122.277 69.5549L59.0796 96.2373L62.8588 154.327C62.897 154.9 63.0733 155.456 63.3729 155.948C63.6725 156.439 64.0866 156.852 64.5804 157.152C65.0742 157.452 65.6333 157.629 66.2106 157.669C66.7879 157.71 67.3665 157.612 67.8978 157.384Z" fill="#30B283"/>
<path d="M122.277 69.5549H103.03C99.4126 69.5546 95.8354 70.3123 92.5326 71.7785L39.9734 94.8476C39.6764 94.97 39.4332 95.1938 39.2877 95.4786C39.1422 95.7634 39.104 96.0904 39.1801 96.4007C39.2561 96.711 39.4413 96.9841 39.7023 97.1707C39.9632 97.3574 40.2828 97.4452 40.6033 97.4185L59.0095 96.2373L122.277 69.5549Z" fill="#ACE0CD"/>
<path d="M122.277 69.555L216.547 105.131H226.695C226.947 105.126 227.19 105.033 227.38 104.869C227.571 104.705 227.698 104.48 227.739 104.233C227.78 103.986 227.734 103.732 227.607 103.516C227.48 103.299 227.282 103.133 227.045 103.047L138.653 70.5972C136.821 69.9043 134.875 69.551 132.914 69.555H122.277Z" fill="#83D1B5"/>
<path d="M144.952 150.088L138.023 169.753C138.023 169.753 125.006 156.62 114.018 134.037C111.419 128.561 110.081 122.58 110.099 116.527C109.889 102.004 116.328 89.2886 119.197 89.0106C122.207 88.7327 118.287 100.615 119.337 112.566C119.592 116.522 120.614 120.391 122.346 123.962C131.725 142.236 144.952 150.088 144.952 150.088Z" fill="#BA8163"/>
<path d="M119.267 112.563C117.097 113.884 113.388 115.829 110.029 116.455C109.819 101.932 116.258 89.2164 119.127 88.9385C122.136 88.73 118.287 100.612 119.267 112.563Z" fill="#FFD3B3"/>
<path d="M190.582 155.994C190.023 170.1 178.895 182.051 164.058 184.136C161.462 184.506 158.842 184.692 156.219 184.692C153.719 184.725 151.218 184.609 148.731 184.344C134.804 182.885 123.816 172.462 122.136 159.399C120.527 146.753 119.407 127.853 124.516 115.068C125.716 112.05 127.419 109.254 129.555 106.799C136.553 98.8776 147.051 96.0287 155.31 95.8897C163.638 95.7507 175.326 97.8353 182.744 105.896C186.173 109.578 188.693 114.512 189.603 121.113C191.072 132.022 191.002 145.572 190.582 155.994Z" fill="#F3BF9A"/>
<path d="M155.17 171.421C168.607 171.629 178.265 166.001 179.175 151.687C180.085 137.373 182.184 114.235 156.22 113.679C130.255 113.123 132.984 139.11 132.774 148.838C132.564 158.566 138.583 171.143 155.17 171.421Z" fill="#FFD5BF"/>
<path d="M59.0796 96.2371L62.8588 154.188C62.9591 155.795 63.4756 157.35 64.3584 158.701C65.2411 160.052 66.4603 161.154 67.8978 161.901L149.501 204.773L150.761 134.871L59.0796 96.2371Z" fill="#ACE0CD"/>
<path d="M61.459 132.856L128.365 165.236C130.042 166.049 131.955 166.244 133.762 165.786C135.57 165.327 137.155 164.246 138.233 162.734L150.691 145.085V134.871L59.0095 96.2371L61.459 132.856Z" fill="#30B283"/>
<path d="M49.6315 121.947L129.205 159.191C130.326 159.725 131.605 159.837 132.802 159.505C134 159.172 135.035 158.418 135.714 157.384L150.831 134.871L59.1496 96.2371L47.532 114.581C47.1253 115.186 46.8557 115.872 46.7417 116.591C46.6276 117.31 46.6719 118.044 46.8715 118.744C47.0711 119.445 47.4212 120.093 47.8977 120.646C48.3741 121.199 48.9657 121.643 49.6315 121.947Z" fill="#ACE0CD"/>
<path d="M203.25 178.369L149.501 204.773L150.761 134.871L216.547 105.131L209.479 169.544C209.262 171.413 208.579 173.199 207.491 174.74C206.404 176.281 204.946 177.528 203.25 178.369Z" fill="#30B283"/>
<path d="M150.761 145.085L158.179 161.067C158.612 161.987 159.225 162.811 159.983 163.493C160.741 164.174 161.629 164.698 162.593 165.035C163.558 165.371 164.581 165.513 165.601 165.452C166.622 165.392 167.62 165.129 168.537 164.68L212.488 142.653L216.617 105.201L150.831 134.94V145.085H150.761Z" fill="#159969"/>
<path d="M163.568 157.384L150.761 134.871L216.547 105.131L228.515 125.073C228.794 125.533 228.974 126.046 229.043 126.579C229.113 127.111 229.071 127.652 228.92 128.168C228.769 128.683 228.512 129.162 228.165 129.575C227.818 129.987 227.389 130.323 226.905 130.563L168.747 158.913C167.847 159.344 166.817 159.426 165.86 159.144C164.902 158.861 164.085 158.233 163.568 157.384Z" fill="#ACE0CD"/>
<path d="M231.804 67.0533C231.664 69.8327 228.515 85.7448 212.768 99.1555C198.071 111.663 178.195 121.182 178.195 121.182L177.075 91.8596C177.075 91.8596 195.131 86.5787 205.699 77.4761C216.267 68.3735 219.976 59.4099 222.636 58.2982C223.516 57.9142 224.496 57.8168 225.435 58.0202C226.007 58.1356 226.539 58.3993 226.975 58.7846C227.049 58.776 227.12 58.7523 227.185 58.7151C227.696 58.5862 228.234 58.6098 228.732 58.7828C229.23 58.9558 229.666 59.2706 229.984 59.6879C230.754 60.5217 230.544 62.9537 230.544 62.9537C231.155 63.6813 231.522 64.58 231.594 65.5246C231.805 66.0052 231.877 66.5343 231.804 67.0533Z" fill="#F3BF9A"/>
<path d="M217.607 79.7513C219.967 81.1415 223.287 79.914 225.023 77.0096C226.758 74.1052 226.252 70.6237 223.892 69.2335C221.531 67.8433 218.211 69.0708 216.476 71.9752C214.74 74.8796 215.247 78.3611 217.607 79.7513Z" fill="#FFD3B3"/>
<path d="M227.325 58.7845C227.068 59.8777 226.717 60.9471 226.275 61.9808C225.155 64.6212 224.316 65.8025 223.896 65.9414C222.846 66.3583 222.706 64.8992 223.756 62.8841C224.444 61.3258 225.029 59.7242 225.505 58.0896C226.078 58.205 226.609 58.4687 227.045 58.8539C227.133 58.8124 227.228 58.7887 227.325 58.7845Z" fill="#FF8D76"/>
<path d="M231.804 65.5941C231.664 65.8721 231.594 66.15 231.454 66.4975C230.264 69.1379 229.354 70.2497 228.935 70.3886C227.885 70.7361 227.815 69.3464 228.865 67.3313C229.608 65.947 230.24 64.5065 230.754 63.0232C231.332 63.7703 231.694 64.6587 231.804 65.5941Z" fill="#FF8D76"/>
<path d="M179.035 120.904C178.855 120.904 178.68 120.852 178.53 120.753C178.381 120.654 178.264 120.513 178.195 120.348C178.143 120.235 178.115 120.112 178.112 119.987C178.109 119.862 178.131 119.738 178.176 119.621C178.222 119.505 178.29 119.399 178.378 119.309C178.465 119.219 178.569 119.147 178.685 119.098C178.825 119.028 195.551 111.802 209.758 100.198C227.745 85.5364 229.984 70.8055 229.984 70.6665C230.012 70.4177 230.138 70.1901 230.335 70.0337C230.532 69.8774 230.784 69.805 231.034 69.8327C231.285 69.8603 231.514 69.9857 231.671 70.1811C231.829 70.3766 231.902 70.6262 231.874 70.875C231.804 71.5003 229.564 86.3702 210.948 101.587C196.531 113.33 179.665 120.696 179.455 120.765C179.327 120.842 179.183 120.89 179.035 120.904Z" fill="#BA8163"/>
<path d="M183.189 104.95C176.051 108.564 166.323 110.857 155.615 110.857C145.817 110.857 136.859 108.98 130 105.923C136.999 98.0018 147.496 95.1529 155.755 95.0139C164.083 94.8054 175.771 96.89 183.189 104.95Z" fill="#BA8163"/>
<path d="M162.938 36.2018C162.938 36.2018 169.937 20.4287 174.066 19.6643C178.125 18.9 180.224 28.8364 181.904 37.1051C182.961 42.1018 183.685 47.1619 184.074 52.2529L162.938 36.2018Z" fill="#E0A98C"/>
<path d="M166.577 36.1323C166.577 36.1323 171.196 25.8485 173.856 25.3621C176.515 24.8757 177.845 31.4073 178.965 36.7576C179.639 40.0169 180.13 43.311 180.435 46.6246L166.577 36.1323Z" fill="#FFD3B3"/>
<path d="M148.101 36.2018C148.101 36.2018 141.103 20.4287 136.974 19.6643C132.914 18.9 130.815 28.8364 129.135 37.1051C128.12 42.1089 127.396 47.1665 126.966 52.2529L148.101 36.2018Z" fill="#E0A98C"/>
<path d="M144.462 36.1323C144.462 36.1323 139.843 25.8485 137.183 25.3621C134.524 24.8757 133.194 31.4073 132.074 36.7576C131.4 40.0169 130.91 43.311 130.605 46.6246L144.462 36.1323Z" fill="#FFD3B3"/>
<path d="M186.103 79.5606L167.767 79.0742L141.243 78.3793L124.236 77.9624C124.236 77.9624 123.466 54.2679 130.395 42.8724C134.034 36.8271 140.823 32.5885 148.311 30.8514C152.11 29.9273 156.046 29.6919 159.929 30.1566C164.968 30.6872 169.726 32.7223 173.576 35.9933C185.824 46.7635 184.564 56.7694 185.334 65.0382C186.103 73.3069 186.103 79.5606 186.103 79.5606Z" fill="#E0A98C"/>
<path d="M167.767 79.0742L141.242 78.3793C143.788 71.6286 145.549 64.6115 146.491 57.4643C147.891 47.7363 148.171 36.8966 148.241 30.8514C152.04 29.9273 155.976 29.6919 159.859 30.1566C159.986 38.9963 160.71 47.8176 162.028 56.561C163.918 68.7904 166.507 76.0168 167.767 79.0742Z" fill="#FFD3B3"/>
<path d="M188.623 86.4397C188.623 97.9047 173.646 107.216 155.17 107.216C136.693 107.216 121.717 97.9047 121.717 86.4397C121.717 72.1952 136.693 65.6636 155.17 65.6636C173.646 65.6636 188.623 72.89 188.623 86.4397Z" fill="#FFD5BF"/>
<path d="M146.772 73.724C148.591 71.153 162.098 70.2497 163.988 73.0986C165.878 75.878 160.909 81.9232 156.08 81.9232C151.251 81.9232 144.322 77.1287 146.772 73.724Z" fill="#413F4C"/>
<path d="M131.794 42.1775C131.588 42.183 131.387 42.1082 131.235 41.9691C131.036 41.8173 130.904 41.5959 130.865 41.3504C130.826 41.1049 130.883 40.8539 131.025 40.6488C132.813 38.4109 134.966 36.4851 137.393 34.951C142.152 31.8242 144.602 31.1988 144.672 31.1988C144.791 31.1608 144.918 31.1491 145.043 31.1646C145.168 31.1801 145.287 31.2224 145.394 31.2885C145.5 31.3546 145.591 31.443 145.66 31.5476C145.729 31.6521 145.774 31.7702 145.792 31.8937C145.83 32.0125 145.842 32.1382 145.826 32.2621C145.81 32.3859 145.768 32.5048 145.701 32.6107C145.635 32.7165 145.546 32.8066 145.44 32.8748C145.335 32.943 145.216 32.9876 145.092 33.0055C145.092 33.0055 142.782 33.6308 138.373 36.5492C136.141 38.0119 134.137 39.791 132.424 41.8301C132.365 41.9427 132.274 42.0356 132.162 42.0974C132.05 42.1591 131.922 42.187 131.794 42.1775Z" fill="#BA8163"/>
<path d="M177.985 42.1775C178.192 42.183 178.393 42.1082 178.545 41.9691C178.743 41.8173 178.875 41.5959 178.914 41.3504C178.953 41.1049 178.896 40.8539 178.755 40.6488C176.966 38.4109 174.813 36.4851 172.386 34.951C167.627 31.8242 165.177 31.1988 165.107 31.1988C164.988 31.1608 164.861 31.1491 164.736 31.1646C164.612 31.1801 164.492 31.2224 164.385 31.2885C164.279 31.3546 164.188 31.443 164.119 31.5476C164.051 31.6521 164.006 31.7702 163.988 31.8937C163.949 32.0125 163.938 32.1382 163.953 32.2621C163.969 32.3859 164.011 32.5048 164.078 32.6107C164.145 32.7165 164.234 32.8066 164.339 32.8748C164.444 32.943 164.563 32.9876 164.688 33.0055C164.688 33.0055 166.997 33.6308 171.406 36.5492C173.638 38.0119 175.642 39.791 177.355 41.8301C177.414 41.9427 177.506 42.0356 177.618 42.0974C177.729 42.1591 177.857 42.187 177.985 42.1775Z" fill="#BA8163"/>
<path d="M148.521 92.068C148.521 92.068 153.91 91.5121 156.499 87.343C157.318 88.5427 158.463 89.4867 159.801 90.065C161.139 90.6432 162.616 90.8318 164.058 90.6088C164.058 90.6088 164.968 98.9471 157.339 99.5724C149.291 100.267 148.521 92.068 148.521 92.068Z" fill="#FF6EA9"/>
<path d="M156.429 96.8625C156.153 96.8382 155.897 96.7091 155.715 96.5019C155.532 96.2948 155.437 96.0257 155.45 95.7507C155.52 92.9713 155.31 88.0379 155.31 87.9684C155.3 87.8258 155.32 87.6827 155.369 87.5481C155.417 87.4136 155.493 87.2903 155.591 87.186C155.69 87.0818 155.809 86.9987 155.941 86.942C156.073 86.8854 156.216 86.8563 156.359 86.8566C156.647 86.8487 156.926 86.9538 157.135 87.149C157.345 87.3442 157.469 87.6137 157.479 87.8989C157.479 88.1074 157.689 93.0408 157.619 95.8897C157.565 96.1636 157.417 96.4103 157.2 96.5877C156.983 96.7651 156.711 96.8623 156.429 96.8625Z" fill="#EA4E95"/>
<path d="M147.681 93.1798C145.653 93.1928 143.647 92.766 141.802 91.9291C141.51 91.7791 141.288 91.5208 141.186 91.21C141.084 90.8991 141.109 90.5609 141.257 90.2685C141.404 89.976 141.661 89.753 141.973 89.6476C142.285 89.5423 142.626 89.5631 142.922 89.7055C143.202 89.8445 150.481 93.3188 155.52 86.6482C155.628 86.4916 155.775 86.3649 155.946 86.2799C156.118 86.1948 156.308 86.1542 156.499 86.1618C156.698 86.16 156.893 86.2106 157.065 86.3082C157.237 86.4059 157.38 86.5472 157.479 86.7177C160.838 91.5122 167.627 89.0802 167.907 89.0107C168.214 88.9058 168.55 88.9189 168.848 89.0476C169.146 89.1762 169.384 89.4109 169.517 89.7055C169.622 90.0106 169.609 90.3438 169.48 90.6396C169.35 90.9355 169.114 91.1724 168.817 91.3037C166.017 92.346 160.209 93.1103 156.499 89.3581C155.382 90.5737 154.019 91.5422 152.5 92.2006C150.981 92.859 149.339 93.1927 147.681 93.1798Z" fill="#413F4C"/>
<path d="M169.867 64.3432C171.567 64.3432 172.946 62.7255 172.946 60.7299C172.946 58.7344 171.567 57.1167 169.867 57.1167C168.166 57.1167 166.787 58.7344 166.787 60.7299C166.787 62.7255 168.166 64.3432 169.867 64.3432Z" fill="#413F4C"/>
<path d="M138.793 64.3432C140.494 64.3432 141.873 62.7255 141.873 60.7299C141.873 58.7344 140.494 57.1167 138.793 57.1167C137.093 57.1167 135.714 58.7344 135.714 60.7299C135.714 62.7255 137.093 64.3432 138.793 64.3432Z" fill="#413F4C"/>
<path d="M164.688 49.6125C165.248 47.7364 168.607 47.9448 171.056 48.7787C173.506 49.6125 175.466 51.2106 174.906 52.1834C174.346 53.2257 163.568 53.2257 164.688 49.6125Z" fill="#FFD3B3"/>
<path d="M142.782 49.5429C142.152 47.6668 138.793 47.9447 136.344 48.848C133.894 49.7513 132.005 51.3495 132.634 52.3223C133.264 53.2951 144.042 53.0866 142.782 49.5429Z" fill="#FFD3B3"/>
<path d="M322.505 186.151L286.743 198.45L270.226 204.148L266.237 205.537L237.123 215.543C235.082 216.244 232.887 216.374 230.777 215.921C228.666 215.468 226.722 214.448 225.155 212.972L221.446 209.429C220.967 208.964 220.586 208.409 220.323 207.798C220.06 207.186 219.922 206.529 219.915 205.864C219.909 205.2 220.034 204.54 220.285 203.924C220.536 203.307 220.906 202.746 221.376 202.272C221.882 201.759 222.507 201.377 223.196 201.16L308.438 171.698C309.656 171.275 310.965 171.181 312.232 171.425C313.498 171.669 314.677 172.243 315.647 173.088L323.555 179.897C323.824 180.118 324.059 180.375 324.255 180.662C324.591 181.113 324.815 181.638 324.908 182.192C325 182.746 324.96 183.314 324.789 183.849C324.618 184.384 324.323 184.872 323.926 185.272C323.529 185.672 323.042 185.973 322.505 186.151Z" fill="#FDDD99"/>
<path d="M301.51 225.757L261.478 238.473C259.652 239.056 257.705 239.157 255.828 238.767C253.951 238.377 252.208 237.51 250.77 236.25L247.061 232.984C246.14 232.186 245.546 231.08 245.391 229.877C245.236 228.673 245.531 227.454 246.221 226.452C246.862 225.526 247.799 224.841 248.88 224.507L275.405 216.585C275.589 216.535 275.758 216.44 275.895 216.307C276.096 216.16 276.26 215.969 276.375 215.75C276.491 215.53 276.554 215.287 276.561 215.039C276.568 214.791 276.518 214.545 276.414 214.319C276.311 214.094 276.157 213.894 275.965 213.737L266.237 205.468L263.088 202.827L262.528 202.341C261.829 201.758 261.306 200.996 261.016 200.137C260.725 199.279 260.679 198.357 260.881 197.474C261.084 196.591 261.527 195.78 262.164 195.131C262.8 194.482 263.604 194.019 264.487 193.794L278.134 190.25L286.743 198.45L304.029 214.848C304.57 215.331 304.999 215.923 305.289 216.585C305.731 217.421 305.984 218.343 306.029 219.287C306.074 220.23 305.911 221.171 305.551 222.045C305.191 222.919 304.642 223.704 303.944 224.346C303.246 224.987 302.415 225.469 301.51 225.757Z" fill="#FDDD99"/>
<path d="M275.965 216.308C276.166 216.16 276.33 215.969 276.445 215.75C276.561 215.53 276.624 215.287 276.631 215.039C276.638 214.791 276.588 214.545 276.484 214.32C276.381 214.094 276.227 213.894 276.035 213.737L266.307 205.468L237.193 215.474C235.152 216.174 232.957 216.305 230.847 215.851C228.736 215.398 226.792 214.378 225.225 212.903L221.516 209.359C221.037 208.894 220.656 208.34 220.393 207.728C220.13 207.117 219.992 206.46 219.985 205.795C219.979 205.13 220.105 204.471 220.355 203.854C220.606 203.237 220.977 202.676 221.446 202.202C223.266 204.842 229.564 210.957 233.694 211.096C237.683 211.235 267.007 200.882 267.007 200.882C267.007 200.882 279.814 211.722 280.304 212.277C281.634 213.667 278.204 215.752 275.965 216.308Z" fill="#FFB32F"/>
<path d="M322.505 186.151L286.743 198.45L282.963 194.976C282.963 194.976 318.096 182.329 322.645 181.079C323.275 180.94 323.835 180.801 324.395 180.662C324.704 181.13 324.901 181.661 324.971 182.217C325.041 182.772 324.983 183.335 324.801 183.865C324.619 184.394 324.317 184.875 323.919 185.271C323.522 185.668 323.038 185.968 322.505 186.151Z" fill="#FFB32F"/>
<path d="M301.51 225.758L261.478 238.473C259.652 239.056 257.705 239.157 255.828 238.767C253.951 238.377 252.208 237.51 250.77 236.25L247.061 232.984C246.14 232.186 245.546 231.081 245.391 229.877C245.236 228.673 245.531 227.454 246.221 226.452C249.37 228.606 255.809 233.054 257.419 233.47C259.518 233.957 268.126 231.177 277.505 227.842C286.883 224.507 302.279 218.323 305.359 216.655C305.783 217.493 306.02 218.413 306.052 219.35C306.084 220.288 305.911 221.221 305.546 222.086C305.18 222.951 304.63 223.727 303.933 224.361C303.236 224.995 302.409 225.471 301.51 225.758Z" fill="#FFB32F"/>
<path d="M234.673 174.2C228.305 170.725 226.065 166 227.045 160.372C228.025 154.674 232.294 148.143 239.013 140.916C252.38 126.602 274.845 106.173 295.561 116.179C302.21 119.376 305.709 123.058 307.039 127.158C309.838 135.774 302.56 145.919 293.741 155.716C283.841 166.43 269.394 179.012 252.481 179.011C246.227 178.957 240.093 177.3 234.673 174.2Z" fill="#FDDD99"/>
<path d="M293.601 155.647C280.374 170.03 259.028 187.68 234.533 174.13C228.165 170.656 225.925 165.931 226.905 160.302C228.864 164.124 232.924 169.127 241.322 171.42C255.809 175.381 270.646 171.629 285.973 156.898C299.41 143.904 303.959 134.106 306.968 127.158C309.838 135.774 302.559 145.919 293.601 155.647Z" fill="#FFB32F"/>
<path d="M289.682 129.242C289.192 128.269 288.142 127.505 286.533 126.879C279.814 124.378 272.186 130.215 259.098 141.124C248.111 150.296 243.422 156.202 244.821 159.399C244.121 158.843 243.352 157.8 243.072 155.577C242.582 151.408 245.171 147.378 252.73 140.429C260.288 133.481 271.136 124.656 277.785 123.266C284.363 121.946 288.982 125.351 289.612 128.061C289.67 128.452 289.694 128.847 289.682 129.242Z" fill="#FFB32F"/>
<path d="M248.811 105.757L242.512 108.675C241.64 109.074 240.697 109.298 239.737 109.332C238.777 109.366 237.82 109.211 236.921 108.875C236.023 108.538 235.2 108.028 234.502 107.374C233.804 106.719 233.244 105.933 232.854 105.062L199.541 29.6007C199.069 28.5099 198.923 27.3072 199.122 26.1365C199.32 24.9658 199.855 23.8767 200.66 22.9996C201.227 22.3779 201.918 21.8808 202.69 21.5404L210.668 17.9967C211.412 17.6647 212.215 17.4822 213.03 17.4599C213.846 17.4375 214.657 17.5756 215.419 17.8663C216.18 18.157 216.876 18.5945 217.466 19.1536C218.056 19.7126 218.529 20.3821 218.857 21.1235L252.38 96.3761C252.705 97.076 252.895 97.8302 252.94 98.5996C253.085 100.07 252.765 101.55 252.025 102.832C251.285 104.114 250.162 105.136 248.811 105.757Z" fill="#FDDD99"/>
<path d="M269.036 48.7092L237.473 62.8147L230.754 65.8025L219.697 50.3768L245.171 38.9117C245.515 38.7688 245.825 38.5558 246.081 38.2864C246.645 37.7524 246.987 37.0278 247.038 36.2559C247.09 35.484 246.849 34.7208 246.361 34.1172L233.554 18.0661C232.615 16.8655 232.122 15.3795 232.161 13.8598C232.199 12.3402 232.765 10.8804 233.764 9.72791C234.426 8.96018 235.267 8.36399 236.213 7.99078L241.392 5.9757C242.702 5.45842 244.146 5.37512 245.508 5.73821C246.87 6.1013 248.077 6.89136 248.951 7.99078L271.976 36.8272C272.249 37.1713 272.484 37.5441 272.676 37.9389C273.182 38.8767 273.49 39.9076 273.581 40.9681C273.671 42.0285 273.542 43.0961 273.201 44.1051C272.86 45.1141 272.315 46.0431 271.598 46.8349C270.882 47.6267 270.01 48.2646 269.036 48.7092Z" fill="#FDDD99"/>
<path d="M269.036 48.7092L237.473 62.8147L234.813 57.2559C234.813 57.2559 261.198 46.6246 267.987 42.7334C270.006 41.6477 271.642 39.9747 272.676 37.939C273.182 38.8768 273.491 39.9076 273.581 40.9681C273.671 42.0286 273.542 43.0962 273.201 44.1051C272.86 45.1141 272.315 46.0431 271.598 46.8349C270.882 47.6267 270.01 48.2646 269.036 48.7092Z" fill="#FFB32F"/>
<path d="M248.811 105.757L242.512 108.675C241.64 109.074 240.697 109.298 239.737 109.332C238.777 109.366 237.82 109.211 236.921 108.875C236.023 108.538 235.2 108.028 234.502 107.374C233.804 106.719 233.244 105.933 232.854 105.062L199.541 29.6006C199.069 28.5098 198.923 27.3071 199.122 26.1364C199.32 24.9657 199.855 23.8766 200.66 22.9995C207.379 37.7304 237.053 102.769 237.403 103.672C237.823 104.714 237.963 105.409 240.972 104.089C243.772 102.838 250.56 100.337 253.01 98.5995C253.125 100.075 252.785 101.55 252.035 102.829C251.285 104.107 250.16 105.129 248.811 105.757Z" fill="#FFB32F"/>
<path d="M246.014 38.3558C246.578 37.8218 246.919 37.0973 246.971 36.3254C247.023 35.5534 246.781 34.7903 246.294 34.1867L233.487 18.1356C232.547 16.935 232.055 15.449 232.094 13.9293C232.132 12.4096 232.698 10.9499 233.697 9.79736C236.426 13.3411 250.143 30.9904 251.403 33.2834C252.383 34.951 248.673 37.1051 246.014 38.3558Z" fill="#FFB32F"/>
<path d="M115.068 36.1323C117.116 36.1323 118.777 34.4835 118.777 32.4496C118.777 30.4157 117.116 28.7668 115.068 28.7668C113.019 28.7668 111.359 30.4157 111.359 32.4496C111.359 34.4835 113.019 36.1323 115.068 36.1323Z" fill="#FFB32F"/>
<path d="M115.068 21.749C117.116 21.749 118.777 20.1002 118.777 18.0663C118.777 16.0324 117.116 14.3835 115.068 14.3835C113.019 14.3835 111.359 16.0324 111.359 18.0663C111.359 20.1002 113.019 21.749 115.068 21.749Z" fill="#FFB32F"/>
<path d="M115.068 7.36544C117.116 7.36544 118.777 5.71663 118.777 3.68272C118.777 1.64881 117.116 0 115.068 0C113.019 0 111.359 1.64881 111.359 3.68272C111.359 5.71663 113.019 7.36544 115.068 7.36544Z" fill="#FFB32F"/>
</svg>
