<svg width="18" height="16" viewBox="0 0 18 16" fill="none" xmlns="http://www.w3.org/2000/svg">
<path d="M4.88172 0.802368C2.27354 0.802368 0.15918 2.96757 0.15918 5.63846C0.15918 10.4746 5.74037 14.871 8.74562 15.8937C11.7509 14.871 17.3321 10.4746 17.3321 5.63846C17.3321 2.96757 15.2177 0.802368 12.6095 0.802368C11.0123 0.802368 9.60028 1.61435 8.74562 2.85718C7.89097 1.61435 6.47893 0.802368 4.88172 0.802368Z" fill="white"/>
<path fill-rule="evenodd" clip-rule="evenodd" d="M8.10528 7.68179C7.14735 7.97803 7.13544 8.30504 6.64656 9.08946C6.38366 9.51159 5.58546 10.2811 5.54889 10.8312C5.49628 11.6207 6.30171 12.1256 7.07834 12.1023C7.94588 12.0762 8.26778 11.4491 9.36907 11.8047C10.1386 12.0532 10.8299 12.3551 11.5201 11.7538C12.6408 10.7778 11.3353 9.90674 10.8345 9.04242C10.642 8.71022 10.4726 8.41364 10.2804 8.17742C9.89677 7.70566 8.9378 7.4243 8.10528 7.68179Z" fill="#2B2B2B"/>
<path fill-rule="evenodd" clip-rule="evenodd" d="M9.95973 3.92138C8.42269 4.41683 8.85258 7.41288 10.312 6.90187C10.8459 6.71493 11.233 5.93224 11.1887 5.14868C11.1507 4.47891 10.6962 3.68394 9.95973 3.92138Z" fill="#2B2B2B"/>
<path fill-rule="evenodd" clip-rule="evenodd" d="M7.16442 3.90045C5.67085 4.30408 6.32621 7.32417 7.73991 6.91743C8.32367 6.74934 8.61883 5.89886 8.47117 5.11427C8.35731 4.50814 7.85273 3.71455 7.16442 3.90045Z" fill="#2B2B2B"/>
<path fill-rule="evenodd" clip-rule="evenodd" d="M4.82453 6.06678C3.43309 6.59733 4.59251 9.30424 5.85751 8.91757C7.20203 8.50651 6.19493 5.544 4.82453 6.06678Z" fill="#2B2B2B"/>
<path fill-rule="evenodd" clip-rule="evenodd" d="M12.1871 6.04395C10.6884 6.44256 10.5897 9.34644 12.1337 8.91203C12.6857 8.75657 13.1518 8.13315 13.2703 7.46494C13.4125 6.66357 13.0231 5.82156 12.1871 6.04395Z" fill="#2B2B2B"/>
</svg>
