<svg width="144" height="144" viewBox="0 0 144 144" fill="none" xmlns="http://www.w3.org/2000/svg">
<g opacity="0.1">
<path fill-rule="evenodd" clip-rule="evenodd" d="M38.4231 24.0323C40.3421 25.5507 41.007 25.126 43.2417 25.0324C44.4441 24.9816 47.0793 25.5297 48.2208 24.8487C49.859 23.8715 49.7405 21.5606 48.6146 20.0322C47.3568 18.3249 45.6661 18.5382 44.8401 15.8378C44.263 13.9507 43.9007 12.1477 41.7491 11.5857C38.256 10.6726 38.344 14.4905 37.3266 16.6823C36.9356 17.5248 36.5832 18.272 36.382 18.9821C35.98 20.4001 36.7553 22.7128 38.4231 24.0323Z" fill="#FFB32F"/>
<path fill-rule="evenodd" clip-rule="evenodd" d="M28.39 25.4643C31.5089 27.873 36.8512 22.8997 33.8093 20.6683C32.6964 19.852 30.6066 20.1478 29.1148 21.3117C27.8397 22.3066 26.8955 24.3104 28.39 25.4643Z" fill="#FFB32F"/>
<path fill-rule="evenodd" clip-rule="evenodd" d="M32.2344 31.1095C35.1108 33.5568 40.1873 28.0974 37.4157 25.8149C36.2709 24.8725 34.1745 25.4461 32.8243 26.819C31.7808 27.8791 30.909 29.9815 32.2344 31.1095Z" fill="#FFB32F"/>
<path fill-rule="evenodd" clip-rule="evenodd" d="M39.782 32.8394C42.7681 34.9073 46.5229 28.8648 43.9978 26.8535C41.3138 24.7159 36.8405 30.803 39.782 32.8394Z" fill="#FFB32F"/>
<path fill-rule="evenodd" clip-rule="evenodd" d="M29.5017 18.0775C32.3754 20.542 38.2696 16.7571 35.2621 14.2508C34.1865 13.3549 32.3026 13.2735 30.8131 13.952C29.0267 14.7656 27.8987 16.7029 29.5017 18.0775Z" fill="#FFB32F"/>
</g>
<g opacity="0.2">
<path fill-rule="evenodd" clip-rule="evenodd" d="M19.0909 47.336C21.512 47.6915 21.8755 46.9913 23.764 45.7928C24.7799 45.1476 27.3362 44.3047 27.9841 43.1442C28.9143 41.4788 27.6562 39.5368 25.9169 38.7761C23.974 37.9264 22.6166 38.9565 20.551 37.0309C19.1076 35.6852 17.8923 34.3049 15.748 34.8939C12.2664 35.8497 14.2515 39.1121 14.4663 41.519C14.549 42.4441 14.6173 43.2674 14.7982 43.983C15.159 45.4119 16.9868 47.0272 19.0909 47.336Z" fill="#FFB32F"/>
<path fill-rule="evenodd" clip-rule="evenodd" d="M11.118 53.5928C15.0234 54.1193 17.1633 47.1411 13.4132 46.7296C12.0413 46.5791 10.3794 47.8802 9.66935 49.634C9.06257 51.1332 9.24677 53.3406 11.118 53.5928Z" fill="#FFB32F"/>
<path fill-rule="evenodd" clip-rule="evenodd" d="M17.2699 56.5594C20.9846 57.2406 22.6513 49.9744 19.1097 49.3835C17.6472 49.1398 16.1184 50.6847 15.6355 52.5488C15.262 53.9886 15.5581 56.2452 17.2699 56.5594Z" fill="#FFB32F"/>
<path fill-rule="evenodd" clip-rule="evenodd" d="M24.6713 54.2837C28.2914 54.5816 28.5218 47.4712 25.3294 46.9919C21.9361 46.4827 21.1057 53.9909 24.6713 54.2837Z" fill="#FFB32F"/>
<path fill-rule="evenodd" clip-rule="evenodd" d="M8.38732 46.6397C12.1083 47.3372 15.3204 41.1123 11.4627 40.4455C10.0833 40.2075 8.41102 41.0789 7.4603 42.4112C6.32008 44.009 6.31176 46.2508 8.38732 46.6397Z" fill="#FFB32F"/>
</g>
<g opacity="0.3">
<path fill-rule="evenodd" clip-rule="evenodd" d="M14.0001 77.1833C16.2745 76.2806 16.2392 75.4925 17.2755 73.5103C17.8327 72.4436 19.625 70.4355 19.6059 69.1065C19.5788 67.1991 17.5182 66.1463 15.6316 66.3572C13.5242 66.5928 12.8636 68.1636 10.1119 67.5288C8.18912 67.0851 6.44651 66.4973 4.88402 68.0796C2.34671 70.6481 5.69712 72.4809 7.08655 74.4579C7.62067 75.2177 8.0915 75.8966 8.60592 76.4259C9.63293 77.483 12.0235 77.9679 14.0001 77.1833Z" fill="#FFB32F"/>
<path fill-rule="evenodd" clip-rule="evenodd" d="M10.2237 86.5883C13.8692 85.0915 12.2332 77.9784 8.77986 79.497C7.51649 80.0526 6.72774 82.0104 6.98977 83.8843C7.21389 85.486 8.4771 87.3055 10.2237 86.5883Z" fill="#FFB32F"/>
<path fill-rule="evenodd" clip-rule="evenodd" d="M17.0347 86.0815C20.5924 84.8141 18.4027 77.6881 15.0401 78.9471C13.6516 79.4673 13.1001 81.5696 13.614 83.4254C14.0104 84.8591 15.3952 86.6654 17.0347 86.0815Z" fill="#FFB32F"/>
<path fill-rule="evenodd" clip-rule="evenodd" d="M22.3067 80.41C25.5907 78.8579 22.2351 72.5849 19.2307 73.7661C16.0375 75.0217 19.0724 81.9392 22.3067 80.41Z" fill="#FFB32F"/>
<path fill-rule="evenodd" clip-rule="evenodd" d="M4.38234 81.9321C7.95357 80.6757 7.62286 73.6786 3.9486 75.0301C2.63493 75.5136 1.62247 77.1045 1.46527 78.7336C1.2767 80.6875 2.39038 82.633 4.38234 81.9321Z" fill="#FFB32F"/>
</g>
<g opacity="0.4">
<path fill-rule="evenodd" clip-rule="evenodd" d="M24.5157 105.577C26.0341 103.658 25.6094 102.993 25.5157 100.758C25.465 99.5559 26.0131 96.9207 25.3321 95.7792C24.3549 94.141 22.044 94.2595 20.5156 95.3854C18.8083 96.6432 19.0216 98.3339 16.3212 99.1599C14.4341 99.737 12.6311 100.099 12.0691 102.251C11.156 105.744 14.9739 105.656 17.1657 106.673C18.0082 107.064 18.7554 107.417 19.4655 107.618C20.8835 108.02 23.1962 107.245 24.5157 105.577Z" fill="#FFB32F"/>
<path fill-rule="evenodd" clip-rule="evenodd" d="M25.9477 115.61C28.3564 112.491 23.3831 107.149 21.1517 110.191C20.3354 111.304 20.6312 113.393 21.7951 114.885C22.79 116.16 24.7938 117.104 25.9477 115.61Z" fill="#FFB32F"/>
<path fill-rule="evenodd" clip-rule="evenodd" d="M31.5929 111.766C34.0402 108.889 28.5808 103.813 26.2983 106.584C25.3559 107.729 25.9295 109.826 27.3024 111.176C28.3625 112.219 30.4649 113.091 31.5929 111.766Z" fill="#FFB32F"/>
<path fill-rule="evenodd" clip-rule="evenodd" d="M33.3228 104.218C35.3907 101.232 29.3482 97.4771 27.3369 100.002C25.1993 102.686 31.2864 107.159 33.3228 104.218Z" fill="#FFB32F"/>
<path fill-rule="evenodd" clip-rule="evenodd" d="M18.5609 114.498C21.0254 111.625 17.2405 105.73 14.7342 108.738C13.8383 109.813 13.7569 111.697 14.4354 113.187C15.249 114.973 17.1863 116.101 18.5609 114.498Z" fill="#FFB32F"/>
</g>
<g opacity="0.5">
<path fill-rule="evenodd" clip-rule="evenodd" d="M47.8192 124.909C48.1746 122.488 47.4744 122.125 46.2759 120.236C45.6308 119.22 44.7879 116.664 43.6273 116.016C41.962 115.086 40.0199 116.344 39.2592 118.083C38.4096 120.026 39.4397 121.383 37.514 123.449C36.1683 124.892 34.788 126.108 35.3771 128.252C36.3328 131.734 39.5953 129.748 42.0021 129.534C42.9272 129.451 43.7505 129.383 44.4661 129.202C45.8951 128.841 47.5103 127.013 47.8192 124.909Z" fill="#FFB32F"/>
<path fill-rule="evenodd" clip-rule="evenodd" d="M54.0759 132.882C54.6024 128.977 47.6243 126.837 47.2128 130.587C47.0622 131.959 48.3634 133.621 50.1172 134.331C51.6164 134.937 53.8238 134.753 54.0759 132.882Z" fill="#FFB32F"/>
<path fill-rule="evenodd" clip-rule="evenodd" d="M57.0426 126.73C57.7237 123.015 50.4576 121.349 49.8666 124.89C49.6229 126.353 51.1678 127.882 53.0319 128.364C54.4718 128.738 56.7284 128.442 57.0426 126.73Z" fill="#FFB32F"/>
<path fill-rule="evenodd" clip-rule="evenodd" d="M54.7669 119.329C55.0647 115.709 47.9543 115.478 47.4751 118.671C46.9658 122.064 54.4741 122.894 54.7669 119.329Z" fill="#FFB32F"/>
<path fill-rule="evenodd" clip-rule="evenodd" d="M47.1229 135.613C47.8204 131.892 41.5954 128.68 40.9287 132.537C40.6906 133.917 41.5621 135.589 42.8944 136.54C44.4922 137.68 46.7339 137.688 47.1229 135.613Z" fill="#FFB32F"/>
</g>
<g opacity="0.6">
<path fill-rule="evenodd" clip-rule="evenodd" d="M77.6665 130C76.7638 127.725 75.9757 127.761 73.9935 126.724C72.9268 126.167 70.9187 124.375 69.5896 124.394C67.6823 124.421 66.6295 126.482 66.8404 128.368C67.076 130.476 68.6468 131.136 68.012 133.888C67.5682 135.811 66.9805 137.553 68.5628 139.116C71.1313 141.653 72.9641 138.303 74.941 136.913C75.7009 136.379 76.3797 135.908 76.909 135.394C77.9661 134.367 78.4511 131.976 77.6665 130Z" fill="#FFB32F"/>
<path fill-rule="evenodd" clip-rule="evenodd" d="M87.0714 133.776C85.5747 130.131 78.4615 131.767 79.9802 135.22C80.5358 136.483 82.4935 137.272 84.3674 137.01C85.9691 136.786 87.7887 135.523 87.0714 133.776Z" fill="#FFB32F"/>
<path fill-rule="evenodd" clip-rule="evenodd" d="M86.5647 126.965C85.2972 123.407 78.1712 125.597 79.4302 128.96C79.9504 130.348 82.0528 130.9 83.9086 130.386C85.3423 129.989 87.1485 128.605 86.5647 126.965Z" fill="#FFB32F"/>
<path fill-rule="evenodd" clip-rule="evenodd" d="M80.8932 121.693C79.3411 118.409 73.0681 121.765 74.2492 124.769C75.5049 127.962 82.4224 124.927 80.8932 121.693Z" fill="#FFB32F"/>
<path fill-rule="evenodd" clip-rule="evenodd" d="M82.4152 139.617C81.1588 136.046 74.1618 136.377 75.5132 140.051C75.9968 141.365 77.5876 142.377 79.2168 142.534C81.1706 142.723 83.1162 141.609 82.4152 139.617Z" fill="#FFB32F"/>
</g>
<g opacity="0.7">
<path fill-rule="evenodd" clip-rule="evenodd" d="M106.06 119.484C104.141 117.966 103.476 118.391 101.241 118.484C100.039 118.535 97.4038 117.987 96.2624 118.668C94.6241 119.645 94.7427 121.956 95.8686 123.484C97.1264 125.192 98.817 124.978 99.6431 127.679C100.22 129.566 100.582 131.369 102.734 131.931C106.227 132.844 106.139 129.026 107.157 126.834C107.548 125.992 107.9 125.245 108.101 124.535C108.503 123.117 107.728 120.804 106.06 119.484Z" fill="#FFB32F"/>
<path fill-rule="evenodd" clip-rule="evenodd" d="M116.093 118.052C112.974 115.644 107.632 120.617 110.674 122.848C111.787 123.665 113.877 123.369 115.368 122.205C116.643 121.21 117.588 119.206 116.093 118.052Z" fill="#FFB32F"/>
<path fill-rule="evenodd" clip-rule="evenodd" d="M112.249 112.407C109.372 109.96 104.296 115.419 107.067 117.702C108.212 118.644 110.309 118.071 111.659 116.698C112.702 115.637 113.574 113.535 112.249 112.407Z" fill="#FFB32F"/>
<path fill-rule="evenodd" clip-rule="evenodd" d="M104.701 110.677C101.715 108.609 97.9602 114.652 100.485 116.663C103.169 118.801 107.643 112.714 104.701 110.677Z" fill="#FFB32F"/>
<path fill-rule="evenodd" clip-rule="evenodd" d="M114.981 125.439C112.108 122.975 106.214 126.759 109.221 129.266C110.297 130.162 112.181 130.243 113.67 129.565C115.456 128.751 116.585 126.814 114.981 125.439Z" fill="#FFB32F"/>
</g>
<g opacity="0.8">
<path fill-rule="evenodd" clip-rule="evenodd" d="M125.392 96.1808C122.971 95.8254 122.608 96.5256 120.719 97.7241C119.703 98.3692 117.147 99.2121 116.499 100.373C115.569 102.038 116.827 103.98 118.566 104.741C120.509 105.59 121.867 104.56 123.932 106.486C125.376 107.832 126.591 109.212 128.735 108.623C132.217 107.667 130.232 104.405 130.017 101.998C129.934 101.073 129.866 100.249 129.685 99.5339C129.324 98.1049 127.496 96.4897 125.392 96.1808Z" fill="#FFB32F"/>
<path fill-rule="evenodd" clip-rule="evenodd" d="M133.365 89.9241C129.46 89.3976 127.32 96.3757 131.07 96.7872C132.442 96.9378 134.104 95.6366 134.814 93.8828C135.421 92.3836 135.236 90.1762 133.365 89.9241Z" fill="#FFB32F"/>
<path fill-rule="evenodd" clip-rule="evenodd" d="M127.213 86.9574C123.499 86.2763 121.832 93.5424 125.373 94.1334C126.836 94.3771 128.365 92.8322 128.848 90.9681C129.221 89.5282 128.925 87.2716 127.213 86.9574Z" fill="#FFB32F"/>
<path fill-rule="evenodd" clip-rule="evenodd" d="M119.812 89.2331C116.192 88.9353 115.961 96.0457 119.154 96.5249C122.547 97.0342 123.377 89.5259 119.812 89.2331Z" fill="#FFB32F"/>
<path fill-rule="evenodd" clip-rule="evenodd" d="M136.096 96.8771C132.375 96.1796 129.163 102.405 133.02 103.071C134.4 103.309 136.072 102.438 137.023 101.106C138.163 99.5078 138.171 97.2661 136.096 96.8771Z" fill="#FFB32F"/>
</g>
<g opacity="0.9">
<path fill-rule="evenodd" clip-rule="evenodd" d="M130.483 66.3335C128.208 67.2362 128.244 68.0243 127.207 70.0065C126.65 71.0732 124.858 73.0813 124.877 74.4104C124.904 76.3177 126.965 77.3705 128.851 77.1596C130.959 76.924 131.619 75.3532 134.371 75.988C136.294 76.4318 138.036 77.0195 139.599 75.4372C142.136 72.8687 138.786 71.0359 137.396 69.059C136.862 68.2991 136.391 67.6203 135.877 67.091C134.85 66.0339 132.459 65.5489 130.483 66.3335Z" fill="#FFB32F"/>
<path fill-rule="evenodd" clip-rule="evenodd" d="M134.259 56.9286C130.614 58.4253 132.25 65.5385 135.703 64.0198C136.966 63.4642 137.755 61.5065 137.493 59.6326C137.269 58.0309 136.006 56.2113 134.259 56.9286Z" fill="#FFB32F"/>
<path fill-rule="evenodd" clip-rule="evenodd" d="M127.448 57.4353C123.891 58.7028 126.08 65.8288 129.443 64.5698C130.831 64.0496 131.383 61.9472 130.869 60.0914C130.472 58.6577 129.088 56.8515 127.448 57.4353Z" fill="#FFB32F"/>
<path fill-rule="evenodd" clip-rule="evenodd" d="M122.176 63.1068C118.892 64.6589 122.248 70.9319 125.252 69.7508C128.445 68.4951 125.411 61.5776 122.176 63.1068Z" fill="#FFB32F"/>
<path fill-rule="evenodd" clip-rule="evenodd" d="M140.101 61.5848C136.529 62.8412 136.86 69.8382 140.534 68.4868C141.848 68.0032 142.86 66.4124 143.018 64.7832C143.206 62.8294 142.093 60.8838 140.101 61.5848Z" fill="#FFB32F"/>
</g>
<path fill-rule="evenodd" clip-rule="evenodd" d="M119.967 37.94C118.449 39.8589 118.874 40.5238 118.967 42.7586C119.018 43.9609 118.47 46.5962 119.151 47.7376C120.128 49.3759 122.439 49.2573 123.968 48.1314C125.675 46.8736 125.462 45.183 128.162 44.3569C130.049 43.7798 131.852 43.4175 132.414 41.266C133.327 37.7729 129.509 37.8609 127.317 36.8435C126.475 36.4525 125.728 36.1 125.018 35.8988C123.6 35.4969 121.287 36.2722 119.967 37.94Z" fill="#FFB32F"/>
<path fill-rule="evenodd" clip-rule="evenodd" d="M118.535 27.9068C116.127 31.0258 121.1 36.368 123.331 33.3261C124.148 32.2133 123.852 30.1234 122.688 28.6316C121.693 27.3565 119.689 26.4124 118.535 27.9068Z" fill="#FFB32F"/>
<path fill-rule="evenodd" clip-rule="evenodd" d="M112.89 31.7512C110.443 34.6277 115.902 39.7041 118.185 36.9325C119.127 35.7877 118.554 33.6913 117.181 32.3411C116.121 31.2977 114.018 30.4258 112.89 31.7512Z" fill="#FFB32F"/>
<path fill-rule="evenodd" clip-rule="evenodd" d="M111.16 39.2988C109.092 42.285 115.135 46.0398 117.146 43.5147C119.284 40.8307 113.197 36.3574 111.16 39.2988Z" fill="#FFB32F"/>
<path fill-rule="evenodd" clip-rule="evenodd" d="M125.922 29.0185C123.458 31.8922 127.243 37.7865 129.749 34.779C130.645 33.7034 130.726 31.8194 130.048 30.3299C129.234 28.5436 127.297 27.4155 125.922 29.0185Z" fill="#FFB32F"/>
<path fill-rule="evenodd" clip-rule="evenodd" d="M96.664 18.6078C96.3085 21.0288 97.0087 21.3923 98.2072 23.2808C98.8524 24.2967 99.6953 26.853 100.856 27.501C102.521 28.4312 104.463 27.173 105.224 25.4338C106.074 23.4909 105.043 22.1334 106.969 20.0678C108.315 18.6245 109.695 17.4092 109.106 15.2649C108.15 11.7832 104.888 13.7684 102.481 13.9832C101.556 14.0658 100.733 14.1342 100.017 14.315C98.5881 14.6759 96.9728 16.5037 96.664 18.6078Z" fill="#FFB32F"/>
<path fill-rule="evenodd" clip-rule="evenodd" d="M90.4072 10.6349C89.8807 14.5403 96.8589 16.6801 97.2704 12.9301C97.4209 11.5582 96.1198 9.89621 94.366 9.1862C92.8668 8.57942 90.6594 8.76362 90.4072 10.6349Z" fill="#FFB32F"/>
<path fill-rule="evenodd" clip-rule="evenodd" d="M87.4406 16.7868C86.7594 20.5015 94.0256 22.1681 94.6165 18.6266C94.8602 17.164 93.3153 15.6352 91.4512 15.1524C90.0114 14.7788 87.7548 15.0749 87.4406 16.7868Z" fill="#FFB32F"/>
<path fill-rule="evenodd" clip-rule="evenodd" d="M89.7163 24.1881C89.4184 27.8082 96.5288 28.0387 97.0081 24.8462C97.5173 21.453 90.0091 20.6225 89.7163 24.1881Z" fill="#FFB32F"/>
<path fill-rule="evenodd" clip-rule="evenodd" d="M97.3603 7.90417C96.6628 11.6252 102.888 14.8373 103.554 10.9796C103.793 9.6001 102.921 7.92787 101.589 6.97714C99.991 5.83692 97.7492 5.82861 97.3603 7.90417Z" fill="#FFB32F"/>
</svg>
