<svg width="61" height="47" viewBox="0 0 61 47" fill="none" xmlns="http://www.w3.org/2000/svg">
<path d="M25.55 14C22.2087 14 19.5 16.7619 19.5 20.1688C19.5 26.3375 26.65 31.9455 30.5 33.25C34.35 31.9455 41.5 26.3375 41.5 20.1688C41.5 16.7619 38.7913 14 35.45 14C33.4038 14 31.5949 15.0357 30.5 16.621C29.4051 15.0357 27.5962 14 25.55 14Z" fill="#30B283"/>
<path fill-rule="evenodd" clip-rule="evenodd" d="M29.6797 22.7752C28.4525 23.153 28.4372 23.5702 27.8109 24.5707C27.4741 25.1092 26.4516 26.0908 26.4047 26.7925C26.3373 27.7995 27.3691 28.4436 28.3641 28.4138C29.4755 28.3805 29.8878 27.5806 31.2987 28.0342C32.2846 28.3512 33.1701 28.7363 34.0543 27.9693C35.4901 26.7243 33.8176 25.6132 33.1761 24.5107C32.9294 24.087 32.7124 23.7087 32.4662 23.4074C31.9747 22.8056 30.7462 22.4467 29.6797 22.7752Z" fill="white"/>
<path fill-rule="evenodd" clip-rule="evenodd" d="M32.0554 17.9785C30.0863 18.6105 30.637 22.4322 32.5067 21.7803C33.1906 21.5419 33.6866 20.5435 33.6298 19.544C33.5811 18.6897 32.9988 17.6756 32.0554 17.9785Z" fill="white"/>
<path fill-rule="evenodd" clip-rule="evenodd" d="M28.4743 17.9518C26.5609 18.4667 27.4005 22.319 29.2116 21.8002C29.9594 21.5858 30.3376 20.5009 30.1484 19.5001C30.0025 18.727 29.3561 17.7147 28.4743 17.9518Z" fill="white"/>
<path fill-rule="evenodd" clip-rule="evenodd" d="M25.4767 20.7151C23.6942 21.3919 25.1795 24.8447 26.8001 24.3515C28.5225 23.8271 27.2323 20.0483 25.4767 20.7151Z" fill="white"/>
<path fill-rule="evenodd" clip-rule="evenodd" d="M34.9089 20.686C32.9889 21.1944 32.8625 24.8985 34.8404 24.3444C35.5476 24.1461 36.1447 23.3509 36.2965 22.4985C36.4786 21.4764 35.9799 20.4023 34.9089 20.686Z" fill="white"/>
<path d="M17.5 0H43.5C43.5 1.65685 42.1569 3 40.5 3H20.5C18.8431 3 17.5 1.65685 17.5 0Z" fill="#30B283"/>
</svg>
