<svg width="118" height="118" viewBox="0 0 118 118" fill="none" xmlns="http://www.w3.org/2000/svg">
<g filter="url(#filter0_d_212_841)">
<circle cx="59" cy="49" r="39" fill="white"/>
</g>
<path d="M48.65 32C41.6636 32 36 37.7389 36 44.8182C36 57.6364 50.95 69.2893 59 72C67.05 69.2893 82 57.6364 82 44.8182C82 37.7389 76.3364 32 69.35 32C65.0717 32 61.2893 34.1522 59 37.4463C56.7107 34.1522 52.9283 32 48.65 32Z" fill="#FF4930"/>
<path fill-rule="evenodd" clip-rule="evenodd" d="M49.9637 41.9637C50.5821 41.3454 51.5846 41.3454 52.2029 41.9637L59 48.7608L65.7971 41.9637C66.4154 41.3454 67.4179 41.3454 68.0363 41.9637C68.6546 42.5821 68.6546 43.5846 68.0363 44.2029L61.2392 51L68.0363 57.7971C68.6546 58.4154 68.6546 59.4179 68.0363 60.0363C67.4179 60.6546 66.4154 60.6546 65.7971 60.0363L59 53.2392L52.2029 60.0363C51.5846 60.6546 50.5821 60.6546 49.9637 60.0363C49.3454 59.4179 49.3454 58.4154 49.9637 57.7971L56.7608 51L49.9637 44.2029C49.3454 43.5846 49.3454 42.5821 49.9637 41.9637Z" fill="white"/>
<defs>
<filter id="filter0_d_212_841" x="0" y="0" width="118" height="118" filterUnits="userSpaceOnUse" color-interpolation-filters="sRGB">
<feFlood flood-opacity="0" result="BackgroundImageFix"/>
<feColorMatrix in="SourceAlpha" type="matrix" values="0 0 0 0 0 0 0 0 0 0 0 0 0 0 0 0 0 0 127 0" result="hardAlpha"/>
<feOffset dy="10"/>
<feGaussianBlur stdDeviation="10"/>
<feColorMatrix type="matrix" values="0 0 0 0 0 0 0 0 0 0 0 0 0 0 0 0 0 0 0.1 0"/>
<feBlend mode="normal" in2="BackgroundImageFix" result="effect1_dropShadow_212_841"/>
<feBlend mode="normal" in="SourceGraphic" in2="effect1_dropShadow_212_841" result="shape"/>
</filter>
</defs>
</svg>
