<svg width="118" height="118" viewBox="0 0 118 118" fill="none" xmlns="http://www.w3.org/2000/svg">
<g filter="url(#filter0_d_212_838)">
<circle cx="59" cy="49" r="39" fill="white"/>
</g>
<path d="M47.925 32C40.7867 32 35 37.7389 35 44.8182C35 57.6364 50.275 69.2893 58.5 72C66.725 69.2893 82 57.6364 82 44.8182C82 37.7389 76.2132 32 69.075 32C64.7037 32 60.8391 34.1522 58.5 37.4463C56.1609 34.1522 52.2964 32 47.925 32Z" fill="#30B283"/>
<path fill-rule="evenodd" clip-rule="evenodd" d="M56.7475 50.2341C54.1257 51.0193 54.0931 51.886 52.7551 53.9652C52.0356 55.084 49.851 57.1238 49.751 58.5818C49.607 60.6742 51.8113 62.0126 53.9369 61.9508C56.3112 61.8816 57.1922 60.2195 60.2063 61.1619C62.3125 61.8206 64.2043 62.6209 66.0933 61.0272C69.1607 58.4402 65.5876 56.1314 64.217 53.8405C63.6901 52.96 63.2265 52.1739 62.7006 51.5478C61.6505 50.2974 59.026 49.5516 56.7475 50.2341Z" fill="white"/>
<path fill-rule="evenodd" clip-rule="evenodd" d="M61.8229 40.267C57.6162 41.5802 58.7927 49.5214 62.787 48.1669C64.2482 47.6714 65.3077 45.5969 65.1863 43.52C65.0825 41.7448 63.8384 39.6377 61.8229 40.267Z" fill="white"/>
<path fill-rule="evenodd" clip-rule="evenodd" d="M54.1725 40.2116C50.0847 41.2814 51.8784 49.2862 55.7475 48.2082C57.3452 47.7626 58.153 45.5084 57.7488 43.4288C57.4372 41.8222 56.0563 39.7188 54.1725 40.2116Z" fill="white"/>
<path fill-rule="evenodd" clip-rule="evenodd" d="M47.7685 45.9535C43.9603 47.3597 47.1335 54.5345 50.5956 53.5096C54.2754 52.42 51.5191 44.5678 47.7685 45.9535Z" fill="white"/>
<path fill-rule="evenodd" clip-rule="evenodd" d="M67.919 45.893C63.8171 46.9495 63.5471 54.6463 67.7727 53.4949C69.2835 53.0828 70.5592 51.4304 70.8835 49.6593C71.2726 47.5353 70.207 45.3035 67.919 45.893Z" fill="white"/>
<defs>
<filter id="filter0_d_212_838" x="0" y="0" width="118" height="118" filterUnits="userSpaceOnUse" color-interpolation-filters="sRGB">
<feFlood flood-opacity="0" result="BackgroundImageFix"/>
<feColorMatrix in="SourceAlpha" type="matrix" values="0 0 0 0 0 0 0 0 0 0 0 0 0 0 0 0 0 0 127 0" result="hardAlpha"/>
<feOffset dy="10"/>
<feGaussianBlur stdDeviation="10"/>
<feColorMatrix type="matrix" values="0 0 0 0 0 0 0 0 0 0 0 0 0 0 0 0 0 0 0.1 0"/>
<feBlend mode="normal" in2="BackgroundImageFix" result="effect1_dropShadow_212_838"/>
<feBlend mode="normal" in="SourceGraphic" in2="effect1_dropShadow_212_838" result="shape"/>
</filter>
</defs>
</svg>
