<svg width="46" height="40" viewBox="0 0 46 40" fill="none" xmlns="http://www.w3.org/2000/svg">
<path d="M12.65 0C5.6636 0 0 5.73894 0 12.8182C0 25.6364 14.95 37.2893 23 40C31.05 37.2893 46 25.6364 46 12.8182C46 5.73894 40.3364 0 33.35 0C29.0717 0 25.2893 2.15218 23 5.44634C20.7107 2.15218 16.9283 0 12.65 0Z" fill="#FF4930"/>
<path fill-rule="evenodd" clip-rule="evenodd" d="M13.9637 9.96375C14.5821 9.34542 15.5846 9.34542 16.2029 9.96375L23 16.7608L29.7971 9.96375C30.4154 9.34542 31.4179 9.34542 32.0363 9.96375C32.6546 10.5821 32.6546 11.5846 32.0363 12.2029L25.2392 19L32.0363 25.7971C32.6546 26.4154 32.6546 27.4179 32.0363 28.0363C31.4179 28.6546 30.4154 28.6546 29.7971 28.0363L23 21.2392L16.2029 28.0363C15.5846 28.6546 14.5821 28.6546 13.9637 28.0363C13.3454 27.4179 13.3454 26.4154 13.9637 25.7971L20.7608 19L13.9637 12.2029C13.3454 11.5846 13.3454 10.5821 13.9637 9.96375Z" fill="white"/>
</svg>
