<svg width="47" height="40" viewBox="0 0 47 40" fill="none" xmlns="http://www.w3.org/2000/svg">
<path d="M12.925 0C5.78672 0 0 5.73894 0 12.8182C0 25.6364 15.275 37.2893 23.5 40C31.725 37.2893 47 25.6364 47 12.8182C47 5.73894 41.2132 0 34.075 0C29.7037 0 25.8391 2.15218 23.5 5.44634C21.1609 2.15218 17.2964 0 12.925 0Z" fill="#30B283"/>
<path fill-rule="evenodd" clip-rule="evenodd" d="M21.7475 18.2341C19.1257 19.0193 19.0931 19.886 17.7551 21.9652C17.0356 23.084 14.851 25.1238 14.751 26.5818C14.607 28.6742 16.8113 30.0126 18.9369 29.9508C21.3112 29.8816 22.1922 28.2195 25.2063 29.1619C27.3125 29.8206 29.2043 30.6209 31.0933 29.0272C34.1607 26.4402 30.5876 24.1314 29.217 21.8405C28.6901 20.96 28.2265 20.1739 27.7006 19.5478C26.6505 18.2974 24.026 17.5516 21.7475 18.2341Z" fill="white"/>
<path fill-rule="evenodd" clip-rule="evenodd" d="M26.8229 8.26703C22.6162 9.58023 23.7927 17.5214 27.787 16.1669C29.2482 15.6714 30.3077 13.5969 30.1863 11.52C30.0825 9.74479 28.8384 7.6377 26.8229 8.26703Z" fill="white"/>
<path fill-rule="evenodd" clip-rule="evenodd" d="M19.1725 8.21157C15.0847 9.28138 16.8784 17.2862 20.7475 16.2082C22.3452 15.7626 23.153 13.5084 22.7488 11.4288C22.4372 9.82225 21.0563 7.71883 19.1725 8.21157Z" fill="white"/>
<path fill-rule="evenodd" clip-rule="evenodd" d="M12.7685 13.9535C8.96026 15.3597 12.1335 22.5345 15.5956 21.5096C19.2754 20.42 16.5191 12.5678 12.7685 13.9535Z" fill="white"/>
<path fill-rule="evenodd" clip-rule="evenodd" d="M32.919 13.893C28.8171 14.9495 28.5471 22.6463 32.7727 21.4949C34.2835 21.0828 35.5592 19.4304 35.8835 17.6593C36.2726 15.5353 35.207 13.3035 32.919 13.893Z" fill="white"/>
</svg>
