<svg width="61" height="47" viewBox="0 0 61 47" fill="none" xmlns="http://www.w3.org/2000/svg">
<path fill-rule="evenodd" clip-rule="evenodd" d="M30.2147 21.0635C30.14 23.3303 29.5756 26.0832 28.9797 28.2178C27.803 32.4277 24.1609 31.0528 23.0887 27.1057C22.1106 23.5065 22.4525 18.2362 22.5033 16.3614C21.794 16.4237 19.457 17.1195 18.894 17.3626C18.6715 17.4583 18.5789 17.6649 18.5655 17.9019C18.3534 21.7229 18.558 26.8322 20.6755 30.1594C21.8373 31.9841 23.6173 33.236 25.8244 32.9625C26.0723 32.9321 26.3172 32.882 26.5591 32.8151C28.4526 32.2864 29.6427 30.5119 30.3924 28.7784L30.8254 27.7787L31.484 28.6402C33.594 31.4007 37.266 30.4557 39.3417 28.2284C40.2735 27.2288 40.935 25.9541 41.4069 24.5548C42.3611 21.7244 42.5374 18.4762 42.494 15.506C42.4926 15.4133 42.4642 15.3541 42.3791 15.3191L42.3656 15.3131L42.3537 15.3085C41.9385 15.114 41.4487 14.9712 41.0112 14.8421L40.9993 14.839L40.9873 14.8345C40.8708 14.795 40.5841 14.7084 40.3661 14.6734C40.4467 17.3474 40.6842 22.8016 39.1297 25.8447C37.8783 28.2968 35.3158 28.8924 33.6866 26.4782C32.6577 24.9529 32.1814 22.6405 32.1694 21.1927C32.1679 21.1182 32.1679 21.0438 32.1694 20.9693C32.6054 20.6807 33.0878 20.193 33.706 19.4637C38.5861 13.7133 32.7398 10.9451 30.8673 14.754C30.5223 14.3377 30.1818 13.9898 29.7757 13.7801C29.371 13.5705 28.8976 13.5036 28.2779 13.657C27.591 13.8272 27.0205 14.362 26.6188 14.9879C26.2156 15.6169 25.9827 16.3416 25.9916 16.8946C26.0021 17.5677 26.2828 18.1754 26.7637 18.7284C27.2445 19.2814 27.924 19.7889 28.7214 20.2583C29.3172 20.6077 29.7966 20.8827 30.2147 21.0635ZM28.5123 14.4182C28.8901 14.3422 29.253 14.4471 29.4531 14.64C29.7697 14.9469 29.4307 15.1976 29.1753 15.3602C28.463 15.8159 28.2764 16.0499 27.9105 16.8278C27.7746 17.1164 27.4252 17.3762 27.146 17.1058C26.9459 16.9129 26.8413 16.5604 26.9011 16.1806C27.025 15.389 27.7298 14.5717 28.5123 14.4182Z" fill="#30B283"/>
</svg>
